# xmcd
#
# Track frame offsets: 
#        150
#        19535
#        34232
#        49378
#        68938
#        82606
#        104307
#        116547
#        133579
#        148208
#        168169
#        188999
#
# Disc length: 2815 seconds
#
# Revision: 0
# Processed by: cddbd v1.5.2PL0 Copyright (c) Steve Scherf et al.
# Submitted via: ExactAudioCopy v0.95b4
#
DISCID=a00afd0c
DTITLE=Jo Kelly Stephenson - I See Flowers, You See Cars
DYEAR=2008
DGENRE=Alt. Country
TTITLE0=Deep End
TTITLE1=Flower
TTITLE2=Fruitless Love
TTITLE3=Slip Away
TTITLE4=Just Fine
TTITLE5=No Good For Two
TTITLE6=Blood And Money
TTITLE7=Cool River
TTITLE8=This Time
TTITLE9=City Of Illusion
TTITLE10=Fly Away Angel
TTITLE11=Out At Sea
EXTD=
EXTT0=
EXTT1=
EXTT2=
EXTT3=
EXTT4=
EXTT5=
EXTT6=
EXTT7=
EXTT8=
EXTT9=
EXTT10=
EXTT11=
PLAYORDER=
